<svg xmlns="http://www.w3.org/2000/svg" viewBox="0 0 64 64" fill="none"><path d="M56 56h-8v8h8c4.42 0 8-3.58 8-8h-8z" fill="#8e37d7"></path><path d="M48 56V0H0v56c0 4.42 3.58 8 8 8h48c-4.42 0-8-3.58-8-8z" fill="#996dff"></path><path d="M48 56H0c0 4.42 3.58 8 8 8h48c-4.42 0-8-3.58-8-8z" fill="#8257e5"></path><path d="M40 30H8v2h32v-2zM40 36H8v2h32v-2zM40 42H8v2h32v-2zM32 48H16v2h16v-2zM23.5 24.66l-3.24-5.92-5.92-3.24 5.92-3.24 3.24-5.92 3.24 5.92 5.92 3.24-5.92 3.24-3.24 5.92zm-4.99-9.16l3.22 1.76 1.76 3.22 1.76-3.22 3.22-1.76-3.22-1.76-1.76-3.22-1.76 3.22-3.22 1.76z" fill="#fff"></path></svg>