<svg xmlns="http://www.w3.org/2000/svg" viewBox="0 0 65 56" fill="none"><path d="M57.03 20h-50v24h50V20z" fill="#BFE9FF"></path><path d="M60.03 52v-4h-8V16.06L64 16.1l.01-4.1L32.06 0 .01 12 0 15.9l12.03.04V48h-8v4h-4v4h64v-4h-4zm-16-4h-8V16.01l8 .03V48zm-24-32.04l8 .03V48h-8V15.96z" fill="#56B4FC"></path><path d="M52.03 20h-40v24h40V20z" fill="#1652F0"></path><path d="M36.41 34.38c0-2.34-1.42-3.12-4.17-3.5-2.03-.29-2.42-.77-2.42-1.72 0-.9.69-1.54 2.01-1.54 1.34 0 2.04.52 2.26 1.75h1.99c-.19-1.86-1.26-2.96-3.06-3.28V24h-2v2.05c-1.98.28-3.26 1.6-3.26 3.29 0 2.19 1.32 3.04 4.12 3.42 1.9.31 2.44.72 2.44 1.8s-.92 1.8-2.21 1.8c-1.98 0-2.45-.98-2.6-2.16h-2.09c.14 1.94 1.2 3.4 3.61 3.72V40h2v-2.08c2.06-.33 3.38-1.77 3.38-3.54z" fill="#fff"></path></svg>