<svg xmlns="http://www.w3.org/2000/svg" viewBox="0 0 120 120" fill="none"><path d="M60 120C26.9 120 0 93.1 0 60C0 26.9 26.9 0 60 0C93.1 0 120 26.9 120 60C120 93.1 93.1 120 60 120Z" fill="white"></path><path d="M59.919 29.0313L41.7465 47.2038L59.919 65.3763L78.0915 47.2038L59.919 29.0313Z" fill="#0A0B0D"></path><path d="M94.9 64L81 50L62.8 68.2L76.7 82.1C77.5 82.9 78.7 82.9 79.5 82.1L94.8 66.8C95.7001 66 95.7 64.7 94.9 64Z" fill="#0052FF"></path><path d="M39 50L25.1 64C24.3 64.8 24.3 66 25.1 66.8L40.4 82.1C41.2 82.9 42.4 82.9 43.2 82.1L57.1 68.2L39 50Z" fill="#BFC4CF"></path></svg>