<svg xmlns="http://www.w3.org/2000/svg" viewBox="0 0 120 120" fill="none"><path d="M60 120C26.9 120 0 93.1 0 60C0 26.9 26.9 0 60 0C93.1 0 120 26.9 120 60C120 93.1 93.1 120 60 120Z" fill="white"></path><path fill-rule="evenodd" clip-rule="evenodd" d="M62.7 79.1L79.1 62.7L91.4 75C92.2 75.8 92.2 77 91.4 77.7L77.7 91.4C76.9 92.2 75.7 92.2 75 91.4L62.7 79.1Z" fill="#BFC4CF"></path><path fill-rule="evenodd" clip-rule="evenodd" d="M91.4 42.2L77.7 28.5C76.9 27.7 75.7 27.7 75 28.5L62.7 40.8L79.1 57.2L91.4 44.9C92.2 44.2 92.2 43 91.4 42.2ZM76.4 60L60 43.6L76.4 60Z" fill="#BFC4CF"></path><path d="M60 43.6L43.6 60L60 76.4L76.4 60L60 43.6Z" fill="#0A0B0D"></path><path d="M42.2 28.6L28.5 42.3C27.7 43.1 27.7 44.3 28.5 45L43.5 60L59.9 43.6L44.9 28.6C44.2 27.8 43 27.8 42.2 28.6Z" fill="#0052FF"></path><path d="M43.6 60L28.6 75C27.8 75.8 27.8 77 28.6 77.7L42.3 91.4C43.1 92.2 44.3 92.2 45 91.4L60 76.4L43.6 60Z" fill="#0052FF"></path></svg>