<svg xmlns="http://www.w3.org/2000/svg" viewBox="0 0 120 120" fill="none"><path d="M60 120C26.9 120 0 93.1 0 60C0 26.9 26.9 0 60 0C93.1 0 120 26.9 120 60C120 93.1 93.1 120 60 120Z" fill="white"></path><path d="M76 44H44V76H76V44Z" fill="#0052FF"></path><path d="M60 44H44V60C52.8 60 60 52.8 60 44Z" fill="#0A0B0D"></path><path d="M76 60C67.2 60 60 67.2 60 76H76V60Z" fill="#0A0B0D"></path><path d="M76 60V44H60C60 52.8 67.2 60 76 60Z" fill="#0A0B0D"></path><path d="M44 60V76H60C60 67.2 52.8 60 44 60Z" fill="#0A0B0D"></path><path d="M76 40.8H79.2V44V59.7C86.5 58.2 92 51.8 92 44C92 35.2 84.8 28 76 28C68.3 28 61.8 33.5 60.3 40.8H76Z" fill="#BFC4CF"></path><path d="M40.8 59.7V44V40.8H44H59.7C58.2 33.5 51.8 28 44 28C35.2 28 28 35.2 28 44C28 51.7 33.5 58.2 40.8 59.7Z" fill="#BFC4CF"></path><path d="M79.2 60.3V76V79.2H76H60.3C61.8 86.5 68.2 92 76 92C84.8 92 92 84.8 92 76C92 68.3 86.5 61.8 79.2 60.3Z" fill="#BFC4CF"></path><path d="M44 79.2H40.8V76V60.3C33.5 61.8 28 68.2 28 76C28 84.8 35.2 92 44 92C51.7 92 58.2 86.5 59.7 79.2H44Z" fill="#BFC4CF"></path></svg>