<svg xmlns="http://www.w3.org/2000/svg" viewBox="0 0 120 120" fill="none"><path d="M60 120C93.1 120 120 93.1 120 60C120 26.9 93.1 0 60 0C26.9 0 0 26.9 0 60C0 93.1 26.9 120 60 120Z" fill="white"></path><path d="M38 40V59C38 70.5 60 86 60 86C60 86 82 70.5 82 59V40H38Z" fill="#0052FF"></path><path d="M60 86C60 86 82 70.5 82 59V40H60V86Z" fill="#0A0B0D"></path><path d="M90 24H60V36H82H86V40V59C86 72.2 64.7 87.6 62.3 89.3L60 90.9V96H90C91.1 96 92 95.1 92 94V26C92 24.9 91.1 24 90 24Z" fill="#BFC4CF"></path></svg>