<svg xmlns="http://www.w3.org/2000/svg" viewBox="0 0 120 120" fill="none"><path d="M60 120C26.9 120 0 93.1 0 60C0 26.9 26.9 0 60 0C93.1 0 120 26.9 120 60C120 93.1 93.1 120 60 120Z" fill="white"></path><path d="M42.6 68.6L25.1 86.1C24.2 87 24.2 88.4 25.1 89.3L30.4 94.6C31.3 95.5 32.7 95.5 33.6 94.6L51.1 77.1C47.7 74.9 44.8 72 42.6 68.6Z" fill="#BFC4CF"></path><path d="M87.6 32.2C75.8 20.4 56.7 20.4 44.9 32.2C33 44 33 63.1 44.8 74.9C56.6 86.7 75.7 86.7 87.5 74.9C99.4 63.1 99.4 44 87.6 32.2ZM66.2 73.7C55.1 73.7 46.1 64.7 46.1 53.6C46.1 42.5 55.1 33.5 66.2 33.5C77.3 33.5 86.3 42.5 86.3 53.6C86.3 64.7 77.3 73.7 66.2 73.7Z" fill="#0052FF"></path><path d="M66.2 39.9L69.4 50.3L79.9 53.5L69.4 56.8L66.2 67.2L63 56.8L52.5 53.5L63 50.3L66.2 39.9Z" fill="#0A0B0D"></path><path d="M48.3 62.8L41 70.2C42.1 71.9 43.4 73.4 44.8 74.9C46.3 76.4 47.8 77.6 49.5 78.7L56.8 71.4C53.2 69.5 50.2 66.5 48.3 62.8Z" fill="#0A0B0D"></path></svg>