<svg width="19" height="21" viewBox="0 0 19 21" fill="none" xmlns="http://www.w3.org/2000/svg">
<path d="M14.9091 6.63636C14.9091 5.18973 14.3344 3.80234 13.3115 2.77942C12.2885 1.75649 10.9012 1.18182 9.45452 1.18182C8.00789 1.18182 6.6205 1.75649 5.59758 2.77942C4.57465 3.80234 3.99998 5.18973 3.99998 6.63636C3.99998 13 1.27271 14.8182 1.27271 14.8182H17.6363C17.6363 14.8182 14.9091 13 14.9091 6.63636Z" stroke="white" stroke-width="2" stroke-linecap="round" stroke-linejoin="round"/>
<path d="M11.0273 18.4545C10.8675 18.7301 10.6381 18.9588 10.362 19.1178C10.086 19.2767 9.77309 19.3604 9.45456 19.3604C9.13604 19.3604 8.8231 19.2767 8.54708 19.1178C8.27107 18.9588 8.04166 18.7301 7.88184 18.4545" stroke="white" stroke-width="2" stroke-linecap="round" stroke-linejoin="round"/>
</svg>
