<svg width="20" height="23" viewBox="0 0 20 23" fill="none" xmlns="http://www.w3.org/2000/svg">
<path d="M16.8735 4.52759H6.68787C5.42721 4.52759 4.21819 4.9166 3.32678 5.60904C2.43536 6.30148 1.93457 7.24063 1.93457 8.2199C1.93457 9.19916 2.43536 10.1383 3.32678 10.8308C4.21819 11.5232 5.42721 11.9122 6.68787 11.9122H13.4783C14.7389 11.9122 15.948 12.3012 16.8394 12.9937C17.7308 13.6861 18.2316 14.6252 18.2316 15.6045C18.2316 16.5838 17.7308 17.5229 16.8394 18.2154C15.948 18.9078 14.7389 19.2968 13.4783 19.2968H1.93457" fill="#121214"/>
<path d="M16.8735 4.52759H6.68787C5.42721 4.52759 4.21819 4.9166 3.32678 5.60904C2.43536 6.30148 1.93457 7.24063 1.93457 8.2199C1.93457 9.19916 2.43536 10.1383 3.32678 10.8308C4.21819 11.5232 5.42721 11.9122 6.68787 11.9122H13.4783C14.7389 11.9122 15.948 12.3012 16.8394 12.9937C17.7308 13.6861 18.2316 14.6252 18.2316 15.6045C18.2316 16.5838 17.7308 17.5229 16.8394 18.2154C15.948 18.9078 14.7389 19.2968 13.4783 19.2968H1.93457" stroke="#EDEDED" stroke-width="2" stroke-linecap="round" stroke-linejoin="round"/>
<path d="M10.0832 1.7583V21.7583" stroke="#EDEDED" stroke-width="2" stroke-linecap="round" stroke-linejoin="round"/>
</svg>
