<svg width="20" height="20" viewBox="0 0 20 20" fill="none" xmlns="http://www.w3.org/2000/svg">
<path d="M5.69054 15.6903C4.94032 14.9401 4.47566 13.9043 4.47585 12.7623L7.23785 12.7621C7.23785 13.5231 7.85721 14.1432 8.61895 14.1432L11.3811 14.1432C12.1425 14.1432 12.7622 13.5235 12.7622 12.7621C12.7622 12.3934 12.6187 12.0463 12.3577 11.7853C12.0968 11.5244 11.7497 11.3808 11.381 11.3808L8.61915 11.3812C6.33372 11.3814 4.47546 9.52237 4.47566 7.23773C4.47565 4.95289 6.33431 3.09424 8.61895 3.09443L11.3811 3.09443C13.6652 3.09483 15.5242 4.95309 15.5243 7.23754L12.7622 7.23773C12.7622 6.47677 12.1429 5.85663 11.3811 5.85663L8.61895 5.85663C7.8576 5.85663 7.23785 6.47638 7.23785 7.23773C7.23785 7.60649 7.38141 7.95357 7.64236 8.21452C7.9033 8.47546 8.25038 8.61902 8.61915 8.61902L11.381 8.61863C13.6664 8.61883 15.5246 10.4779 15.5244 12.7621C15.5244 15.047 13.6658 16.9056 11.3811 16.9054L8.61895 16.9054C7.47692 16.9052 6.44095 16.4408 5.69054 15.6903Z" fill="#EDEDED"/>
<path d="M11 1H9L8.99998 19H11L11 1Z" fill="#EDEDED"/>
</svg>
