<svg width="15" height="18" viewBox="0 0 15 18" fill="none" xmlns="http://www.w3.org/2000/svg">
<path d="M12.3031 13.1667H3.03034V11.5H12.3031V13.1667ZM12.3031 9.83335H3.03034V8.16669H12.3031V9.83335ZM12.3031 6.50002H3.03034V4.83335H12.3031V6.50002ZM0.712158 17.3334L1.87125 16.0834L3.03034 17.3334L4.18943 16.0834L5.34853 17.3334L6.50762 16.0834L7.66671 17.3334L8.8258 16.0834L9.98489 17.3334L11.144 16.0834L12.3031 17.3334L13.4622 16.0834L14.6213 17.3334V0.666687L13.4622 1.91669L12.3031 0.666687L11.144 1.91669L9.98489 0.666687L8.8258 1.91669L7.66671 0.666687L6.50762 1.91669L5.34853 0.666687L4.18943 1.91669L3.03034 0.666687L1.87125 1.91669L0.712158 0.666687V17.3334Z" fill="#EDEDED"/>
</svg>
