<svg width="31" height="10" viewBox="0 0 31 10" fill="none" xmlns="http://www.w3.org/2000/svg">
<path d="M0.190334 9.7583V0.3983H1.98433L6.05333 6.6383V0.3983H7.84733V9.7583H6.05333L1.98433 3.5183V9.7583H0.190334ZM9.92104 9.7583V0.3983H15.641V2.1663H11.689V4.1943H14.861V5.9623H11.689V9.7583H9.92104ZM19.2456 9.7583V2.0493H16.2946V0.3983H23.9646V2.0493H21.0136V9.7583H19.2456ZM27.2377 9.9533C26.3537 9.9533 25.6387 9.75397 25.0927 9.3553C24.5511 8.9523 24.2217 8.38463 24.1047 7.6523L25.9117 7.3793C25.9854 7.70863 26.1479 7.96647 26.3992 8.1528C26.6549 8.33913 26.9777 8.4323 27.3677 8.4323C27.6884 8.4323 27.9354 8.37163 28.1087 8.2503C28.2821 8.12463 28.3687 7.9513 28.3687 7.7303C28.3687 7.59163 28.3341 7.48113 28.2647 7.3988C28.1954 7.31213 28.0394 7.22763 27.7967 7.1453C27.5584 7.06297 27.1857 6.95463 26.6787 6.8203C26.1067 6.67297 25.6496 6.5083 25.3072 6.3263C24.9649 6.1443 24.7179 5.92763 24.5662 5.6763C24.4146 5.42063 24.3387 5.11297 24.3387 4.7533C24.3387 4.30263 24.4536 3.91263 24.6832 3.5833C24.9129 3.24963 25.2357 2.99397 25.6517 2.8163C26.0721 2.6343 26.5661 2.5433 27.1337 2.5433C27.6841 2.5433 28.1716 2.6278 28.5962 2.7968C29.0209 2.9658 29.3632 3.2063 29.6232 3.5183C29.8876 3.8303 30.0501 4.19863 30.1107 4.6233L28.3037 4.9483C28.2734 4.6883 28.1607 4.48247 27.9657 4.3308C27.7707 4.17913 27.5064 4.0903 27.1727 4.0643C26.8477 4.04263 26.5856 4.08597 26.3862 4.1943C26.1912 4.30263 26.0937 4.45863 26.0937 4.6623C26.0937 4.78363 26.1349 4.88547 26.2172 4.9678C26.3039 5.05013 26.4794 5.13463 26.7437 5.2213C27.0124 5.30797 27.4197 5.42063 27.9657 5.5593C28.4987 5.69797 28.9256 5.86047 29.2462 6.0468C29.5712 6.2288 29.8074 6.4498 29.9547 6.7098C30.1021 6.96547 30.1757 7.2753 30.1757 7.6393C30.1757 8.35863 29.9157 8.92413 29.3957 9.3358C28.8757 9.74747 28.1564 9.9533 27.2377 9.9533Z" fill="#EDEDED"/>
</svg>
