<svg width="299" height="168" viewBox="0 0 299 168" fill="none" xmlns="http://www.w3.org/2000/svg">
<path d="M76.342 31.48C76.342 37.1973 75.0193 42.4027 72.374 47.096C69.7287 51.704 65.8033 55.3733 60.598 58.104C55.478 60.8347 49.2487 62.2 41.91 62.2H30.646V91H2.23V0.375999H41.91C53.0033 0.375999 61.494 3.192 67.382 8.824C73.3553 14.456 76.342 22.008 76.342 31.48ZM38.71 39.8C44.598 39.8 47.542 37.0267 47.542 31.48C47.542 25.9333 44.598 23.16 38.71 23.16H30.646V39.8H38.71ZM115.051 0.375999V91H86.635V0.375999H115.051ZM160.653 68.344H197.005V91H129.165V69.624L165.005 22.904H129.165V0.375999H197.005V21.752L160.653 68.344ZM298.11 0.375999L265.598 63.48V91H237.182V63.48L204.67 0.375999H237.182L251.646 32.504L266.11 0.375999H298.11ZM53.7535 97.3V167H44.6535V135.4H9.15352V167H0.0535163V97.3H9.15352V127.9H44.6535V97.3H53.7535ZM96.8918 167.7C90.4251 167.7 84.5251 166.2 79.1918 163.2C73.8585 160.133 69.6251 155.9 66.4918 150.5C63.4251 145.033 61.8918 138.9 61.8918 132.1C61.8918 125.3 63.4251 119.2 66.4918 113.8C69.6251 108.333 73.8585 104.1 79.1918 101.1C84.5251 98.0333 90.4251 96.5 96.8918 96.5C103.425 96.5 109.358 98.0333 114.692 101.1C120.025 104.1 124.225 108.3 127.292 113.7C130.358 119.1 131.892 125.233 131.892 132.1C131.892 138.967 130.358 145.1 127.292 150.5C124.225 155.9 120.025 160.133 114.692 163.2C109.358 166.2 103.425 167.7 96.8918 167.7ZM96.8918 159.8C101.758 159.8 106.125 158.667 109.992 156.4C113.925 154.133 116.992 150.9 119.192 146.7C121.458 142.5 122.592 137.633 122.592 132.1C122.592 126.5 121.458 121.633 119.192 117.5C116.992 113.3 113.958 110.067 110.092 107.8C106.225 105.533 101.825 104.4 96.8918 104.4C91.9585 104.4 87.5585 105.533 83.6918 107.8C79.8251 110.067 76.7585 113.3 74.4918 117.5C72.2918 121.633 71.1918 126.5 71.1918 132.1C71.1918 137.633 72.2918 142.5 74.4918 146.7C76.7585 150.9 79.8251 154.133 83.6918 156.4C87.6251 158.667 92.0251 159.8 96.8918 159.8ZM148.805 97.3V141.4C148.805 147.6 150.305 152.2 153.305 155.2C156.372 158.2 160.605 159.7 166.005 159.7C171.338 159.7 175.505 158.2 178.505 155.2C181.572 152.2 183.105 147.6 183.105 141.4V97.3H192.205V141.3C192.205 147.1 191.038 152 188.705 156C186.372 159.933 183.205 162.867 179.205 164.8C175.272 166.733 170.838 167.7 165.905 167.7C160.972 167.7 156.505 166.733 152.505 164.8C148.572 162.867 145.438 159.933 143.105 156C140.838 152 139.705 147.1 139.705 141.3V97.3H148.805ZM225.486 167.7C220.886 167.7 216.752 166.9 213.086 165.3C209.486 163.633 206.652 161.367 204.586 158.5C202.519 155.567 201.452 152.2 201.386 148.4H211.086C211.419 151.667 212.752 154.433 215.086 156.7C217.486 158.9 220.952 160 225.486 160C229.819 160 233.219 158.933 235.686 156.8C238.219 154.6 239.486 151.8 239.486 148.4C239.486 145.733 238.752 143.567 237.286 141.9C235.819 140.233 233.986 138.967 231.786 138.1C229.586 137.233 226.619 136.3 222.886 135.3C218.286 134.1 214.586 132.9 211.786 131.7C209.052 130.5 206.686 128.633 204.686 126.1C202.752 123.5 201.786 120.033 201.786 115.7C201.786 111.9 202.752 108.533 204.686 105.6C206.619 102.667 209.319 100.4 212.786 98.8C216.319 97.2 220.352 96.4 224.886 96.4C231.419 96.4 236.752 98.0333 240.886 101.3C245.086 104.567 247.452 108.9 247.986 114.3H237.986C237.652 111.633 236.252 109.3 233.786 107.3C231.319 105.233 228.052 104.2 223.986 104.2C220.186 104.2 217.086 105.2 214.686 107.2C212.286 109.133 211.086 111.867 211.086 115.4C211.086 117.933 211.786 120 213.186 121.6C214.652 123.2 216.419 124.433 218.486 125.3C220.619 126.1 223.586 127.033 227.386 128.1C231.986 129.367 235.686 130.633 238.486 131.9C241.286 133.1 243.686 135 245.686 137.6C247.686 140.133 248.686 143.6 248.686 148C248.686 151.4 247.786 154.6 245.986 157.6C244.186 160.6 241.519 163.033 237.986 164.9C234.452 166.767 230.286 167.7 225.486 167.7ZM267.177 104.7V128H292.577V135.5H267.177V159.5H295.577V167H258.077V97.2H295.577V104.7H267.177Z" fill="white"/>
</svg>
