<svg width="297" height="91" viewBox="0 0 297 91" fill="none" xmlns="http://www.w3.org/2000/svg">
<path d="M29.146 62.2V91H0.730002V0.375999H40.41C51.5033 0.375999 59.994 3.192 65.882 8.824C71.8553 14.456 74.842 22.008 74.842 31.48C74.842 37.1973 73.5193 42.4027 70.874 47.096C68.2287 51.704 64.3033 55.3733 59.098 58.104C53.978 60.8347 47.7487 62.2 40.41 62.2H29.146ZM37.21 39.8C43.098 39.8 46.042 37.0267 46.042 31.48C46.042 25.9333 43.098 23.16 37.21 23.16H29.146V39.8H37.21ZM113.551 0.375999V91H85.135V0.375999H113.551ZM159.153 68.344H195.505V91H127.665V69.624L163.505 22.904H127.665V0.375999H195.505V21.752L159.153 68.344ZM296.61 0.375999L264.098 63.48V91H235.682V63.48L203.17 0.375999H235.682L250.146 32.504L264.61 0.375999H296.61Z" fill="white"/>
</svg>
