<svg width="21" height="21" viewBox="0 0 21 21" fill="none" xmlns="http://www.w3.org/2000/svg">
<path d="M18.945 17.7953V18.7829C18.945 19.8694 18.1519 20.7582 17.1825 20.7582H4.84436C3.86613 20.7582 3.08178 19.8694 3.08178 18.7829V4.95578C3.08178 3.86936 3.86613 2.98047 4.84436 2.98047H17.1825C18.1519 2.98047 18.945 3.86936 18.945 4.95578V5.94343H11.0134C10.0352 5.94343 9.25083 6.83232 9.25083 7.91874V15.82C9.25083 16.9064 10.0352 17.7953 11.0134 17.7953H18.945ZM11.0134 15.82H19.8263V7.91874H11.0134V15.82ZM14.5386 13.3508C13.8071 13.3508 13.2166 12.6891 13.2166 11.8694C13.2166 11.0496 13.8071 10.3879 14.5386 10.3879C15.2701 10.3879 15.8605 11.0496 15.8605 11.8694C15.8605 12.6891 15.2701 13.3508 14.5386 13.3508Z" fill="#EDEDED"/>
</svg>
