<svg width="75" height="92" viewBox="0 0 75 92" fill="none" xmlns="http://www.w3.org/2000/svg">
<path d="M45.3865 66.2304C40.2036 66.2304 35.0203 64.2576 31.0746 60.3119C23.1828 52.4201 23.1828 39.5799 31.0746 31.6881C38.9656 23.7971 51.807 23.7967 59.698 31.6881C67.5897 39.5799 67.5897 52.4201 59.698 60.3119C55.7527 64.2576 50.5694 66.2304 45.3865 66.2304ZM45.3865 29.4477C41.146 29.4477 36.9052 31.0622 33.6767 34.2902C27.2201 40.7468 27.2201 51.2528 33.6767 57.7098C40.134 64.1663 50.6393 64.1663 57.0966 57.7098C63.5532 51.2532 63.5532 40.7472 57.0966 34.2902C53.8678 31.0622 49.6269 29.4477 45.3865 29.4477Z" fill="url(#paint0_linear_334_501)" fill-opacity="0.2"/>
<path d="M34.978 85.0323L6.35425 56.4085L55.795 6.96771L84.4188 35.5915L34.978 85.0323ZM11.5585 56.4085L34.978 79.828L79.2146 35.5915L55.795 12.172L11.5585 56.4085Z" fill="url(#paint1_linear_334_501)" fill-opacity="0.2"/>
<path d="M46.6872 55.4208C45.2737 55.4208 43.8602 54.8827 42.7845 53.8067L45.3863 51.2046C46.1031 51.9214 47.2708 51.9222 47.9884 51.2046L50.5905 48.6025C51.3078 47.8852 51.3078 46.7176 50.5905 46.0003C50.2431 45.6529 49.7809 45.4612 49.2893 45.4612C48.7976 45.4612 48.3354 45.6529 47.988 46.0003L45.3867 48.6025C43.2339 50.7556 39.732 50.7549 37.5799 48.6025C35.4275 46.45 35.4275 42.9481 37.5799 40.7961L40.182 38.1939C42.3341 36.0426 45.836 36.0419 47.988 38.1939L45.3863 40.7961C44.6694 40.0792 43.5018 40.0785 42.7842 40.7961L40.182 43.3982C39.4648 44.1154 39.4648 45.2831 40.182 46.0003C40.5294 46.3477 40.9916 46.5394 41.4833 46.5394C41.9749 46.5394 42.4371 46.3477 42.7845 46.0003L45.3859 43.3982C47.5391 41.2454 51.041 41.2461 53.1927 43.3982C55.3451 45.5506 55.3451 49.0525 53.1927 51.2046L50.5905 53.8067C49.5145 54.8824 48.101 55.4208 46.6872 55.4208Z" fill="url(#paint2_linear_334_501)" fill-opacity="0.2"/>
<path d="M37.5797 35.5933L34.9775 38.1954L37.5797 40.7976L40.1818 38.1954L37.5797 35.5933Z" fill="url(#paint3_linear_334_501)" fill-opacity="0.2"/>
<path d="M53.1925 51.2068L50.5903 53.8089L53.1925 56.411L55.7946 53.8089L53.1925 51.2068Z" fill="url(#paint4_linear_334_501)" fill-opacity="0.2"/>
<path d="M19.6265 29.44L0 14.72L19.6265 0V7.36H50.1985L35.4785 22.08H19.6265V29.44ZM6.13309 14.72L15.9465 22.08V18.4H33.9543L41.3143 11.04H15.9465V7.36L6.13309 14.72Z" fill="url(#paint5_linear_334_501)" fill-opacity="0.2"/>
<path d="M71.1467 92V84.64H40.5747L55.2947 69.92H71.1467V62.56L90.7732 77.28L71.1467 92ZM49.459 80.96H74.8267V84.64L84.6401 77.28L74.8267 69.92V73.6H56.819L49.459 80.96Z" fill="url(#paint6_linear_334_501)" fill-opacity="0.2"/>
<defs>
<linearGradient id="paint0_linear_334_501" x1="45.6424" y1="45.8586" x2="8.51039" y2="45.8586" gradientUnits="userSpaceOnUse">
<stop stop-color="#8257E5"/>
<stop offset="1" stop-opacity="0"/>
</linearGradient>
<linearGradient id="paint1_linear_334_501" x1="45.8806" y1="45.7269" x2="-25.7609" y2="45.7269" gradientUnits="userSpaceOnUse">
<stop stop-color="#8257E5"/>
<stop offset="1" stop-opacity="0"/>
</linearGradient>
<linearGradient id="paint2_linear_334_501" x1="45.5055" y1="45.9346" x2="28.2144" y2="45.9346" gradientUnits="userSpaceOnUse">
<stop stop-color="#8257E5"/>
<stop offset="1" stop-opacity="0"/>
</linearGradient>
<linearGradient id="paint3_linear_334_501" x1="37.587" y1="38.1699" x2="35.199" y2="40.5579" gradientUnits="userSpaceOnUse">
<stop stop-color="#8257E5"/>
<stop offset="1" stop-opacity="0"/>
</linearGradient>
<linearGradient id="paint4_linear_334_501" x1="53.1998" y1="53.7833" x2="50.8118" y2="56.1714" gradientUnits="userSpaceOnUse">
<stop stop-color="#8257E5"/>
<stop offset="1" stop-opacity="0"/>
</linearGradient>
<linearGradient id="paint5_linear_334_501" x1="25.417" y1="14.617" x2="-20.6513" y2="14.617" gradientUnits="userSpaceOnUse">
<stop stop-color="#8257E5"/>
<stop offset="1" stop-opacity="0"/>
</linearGradient>
<linearGradient id="paint6_linear_334_501" x1="65.9917" y1="77.177" x2="19.9234" y2="77.177" gradientUnits="userSpaceOnUse">
<stop stop-color="#8257E5"/>
<stop offset="1" stop-opacity="0"/>
</linearGradient>
</defs>
</svg>
