<svg width="24" height="24" viewBox="0 0 24 24" fill="none" xmlns="http://www.w3.org/2000/svg">
<g clip-path="url(#clip0_188_473)">
<path d="M23 19C23 19.5304 22.7893 20.0391 22.4142 20.4142C22.0391 20.7893 21.5304 21 21 21H2.99998C2.46955 21 1.96084 20.7893 1.58577 20.4142C1.2107 20.0391 0.999985 19.5304 0.999985 19V8C0.999985 7.46957 1.2107 6.96086 1.58577 6.58579C1.96084 6.21071 2.46955 6 2.99998 6H6.99998L8.99998 3H15L17 6H21C21.5304 6 22.0391 6.21071 22.4142 6.58579C22.7893 6.96086 23 7.46957 23 8V19Z" stroke="#EDEDED" stroke-width="2" stroke-linecap="round" stroke-linejoin="round"/>
<path d="M12 17C14.2091 17 16 15.2091 16 13C16 10.7909 14.2091 9 12 9C9.79085 9 7.99998 10.7909 7.99998 13C7.99998 15.2091 9.79085 17 12 17Z" stroke="#EDEDED" stroke-width="2" stroke-linecap="round" stroke-linejoin="round"/>
</g>
<defs>
<clipPath id="clip0_188_473">
<rect width="24" height="24" fill="white"/>
</clipPath>
</defs>
</svg>
