<svg width="66" height="95" viewBox="0 0 66 95" fill="none" xmlns="http://www.w3.org/2000/svg">
<path d="M65.8333 70.9967H13.1667V61.5304H65.8333V70.9967ZM65.8333 52.0642H13.1667V42.598H65.8333V52.0642ZM65.8333 33.1318H13.1667V23.6656H65.8333V33.1318ZM0 94.6622L6.58333 87.5626L13.1667 94.6622L19.75 87.5626L26.3333 94.6622L32.9167 87.5626L39.5 94.6622L46.0833 87.5626L52.6667 94.6622L59.25 87.5626L65.8333 94.6622L72.4167 87.5626L79 94.6622V0L72.4167 7.09967L65.8333 0L59.25 7.09967L52.6667 0L46.0833 7.09967L39.5 0L32.9167 7.09967L26.3333 0L19.75 7.09967L13.1667 0L6.58333 7.09967L0 0V94.6622Z" fill="url(#paint0_linear_330_455)" fill-opacity="0.2"/>
<defs>
<linearGradient id="paint0_linear_330_455" x1="40" y1="47" x2="-32.5" y2="47" gradientUnits="userSpaceOnUse">
<stop stop-color="#8257E5"/>
<stop offset="1" stop-opacity="0"/>
</linearGradient>
</defs>
</svg>
