<svg width="23" height="23" viewBox="0 0 23 23" fill="none" xmlns="http://www.w3.org/2000/svg">
<path d="M16.7138 2.47149C16.9764 2.20885 17.2882 2.00051 17.6314 1.85837C17.9745 1.71623 18.3423 1.64307 18.7138 1.64307C19.0852 1.64307 19.453 1.71623 19.7962 1.85837C20.1393 2.00051 20.4511 2.20885 20.7138 2.47149C20.9764 2.73414 21.1848 3.04594 21.3269 3.3891C21.469 3.73226 21.5422 4.10006 21.5422 4.47149C21.5422 4.84293 21.469 5.21073 21.3269 5.55389C21.1848 5.89705 20.9764 6.20885 20.7138 6.47149L7.21378 19.9715L1.71378 21.4715L3.21378 15.9715L16.7138 2.47149Z" stroke="black" stroke-width="2" stroke-linecap="round" stroke-linejoin="round"/>
</svg>
