<svg width="128" height="128" viewBox="0 0 128 128" fill="none" xmlns="http://www.w3.org/2000/svg">
<g clip-path="url(#clip0_375_588)">
<path d="M75.1805 74.9735C73.7291 76.5455 71.9788 77.8063 70.0341 78.6808C68.0894 79.5553 65.9901 80.0255 63.8615 80.0634C61.7328 80.1013 59.6184 79.7061 57.6443 78.9014C55.6703 78.0967 53.877 76.899 52.3716 75.3796C50.8661 73.8603 49.6794 72.0505 48.882 70.0582C48.0846 68.0659 47.6931 65.932 47.7306 63.7837C47.7682 61.6353 48.2341 59.5166 49.1006 57.554C49.9671 55.5913 51.2164 53.8249 52.774 52.3601M95.3674 95.3468C86.334 102.296 75.3343 106.146 63.9772 106.333C26.9855 106.333 5.84729 63.6668 5.84729 63.6668C12.4207 51.3036 21.5378 40.502 32.5871 31.9868L95.3674 95.3468ZM52.8797 22.2801C56.5172 21.4208 60.2414 20.9913 63.9772 21.0001C100.969 21.0001 122.107 63.6668 122.107 63.6668C118.899 69.7234 115.074 75.4254 110.693 80.6801L52.8797 22.2801Z" stroke="#8257E5" stroke-width="10" stroke-linecap="round" stroke-linejoin="round"/>
<path d="M6.17761 5.33337L122.438 122.667" stroke="#8257E5" stroke-width="10" stroke-linecap="round" stroke-linejoin="round"/>
</g>
<defs>
<clipPath id="clip0_375_588">
<rect width="126.829" height="128" fill="white" transform="translate(0.893066)"/>
</clipPath>
</defs>
</svg>
