<svg xmlns="http://www.w3.org/2000/svg" viewBox="0 0 61 56" fill="none"><path d="M40 40.5v-.99c0-.89-.59-1.68-1.45-1.92l-9.21-2.63a7.975 7.975 0 00-6.31.83L16 40v12h15.65c2.88 0 5.73-.52 8.43-1.53L60 43c.9-2.26-.93-4.67-3.35-4.39L40 40.5z" fill="#56B4FC"></path><path d="M16 36H0v20h16V36z" fill="#BFE9FF"></path><path d="M16 40H0v12h16V40z" fill="#1652F0"></path><path d="M28 20c5.523 0 10-4.477 10-10S33.523 0 28 0 18 4.477 18 10s4.477 10 10 10z" fill="#56B4FC"></path><path d="M48 36c5.523 0 10-4.477 10-10s-4.477-10-10-10-10 4.477-10 10 4.477 10 10 10z" fill="#1652F0"></path><path d="M32 9h-3V6h-2v3h-3v2h3v3h2v-3h3V9zM52 27v-2h-8v2h8z" fill="#fff"></path></svg>