<svg xmlns="http://www.w3.org/2000/svg" viewBox="0 0 120 120" fill="none"><path d="M60 120C26.9 120 0 93.1 0 60C0 26.9 26.9 0 60 0C93.1 0 120 26.9 120 60C120 93.1 93.1 120 60 120Z" fill="white"></path><path d="M88.0462 33.6488H40.1462L76.3462 49.2488C78.5462 50.1488 79.9462 52.3488 79.9462 54.7488V73.6488H87.9462C89.0462 73.6488 89.9462 72.7488 89.9462 71.6488V35.6488C90.0462 34.5488 89.1462 33.6488 88.0462 33.6488Z" fill="#BFC4CF"></path><path d="M30.0462 73.6488L72.5462 92.1488C74.2462 92.8488 76.0462 91.6488 76.0462 89.8488V73.6488H30.0462Z" fill="#0052FF"></path><path d="M72.9462 52.1488L30.0462 33.6488V73.6488H76.0462V56.6488C76.0462 54.6488 74.8462 52.8488 72.9462 52.1488Z" fill="#0A0B0D"></path></svg>