<svg xmlns="http://www.w3.org/2000/svg" viewBox="0 0 120 120" fill="none"><path d="M60 120C26.9 120 0 93.1 0 60C0 26.9 26.9 0 60 0C93.1 0 120 26.9 120 60C120 93.1 93.1 120 60 120Z" fill="white"></path><path d="M34 98H70C72.2 98 74 96.2 74 94V42H34C31.8 42 30 43.8 30 46V94C30 96.2 31.8 98 34 98Z" fill="#0052FF"></path><path d="M74 42H50V74H74V42Z" fill="#0A0B0D"></path><path d="M86 22H54C51.8 22 50 23.8 50 26V38H78V74H86C88.2 74 90 72.2 90 70V26C90 23.8 88.2 22 86 22Z" fill="#BFC4CF"></path><path d="M62 50L64.1 55.9L70 58L64.1 60.1L62 66L59.9 60.1L54 58L59.9 55.9L62 50Z" fill="white"></path></svg>