<svg xmlns="http://www.w3.org/2000/svg" viewBox="0 0 120 120" fill="none"><path d="M60 120C26.9 120 0 93.1 0 60C0 26.9 26.9 0 60 0C93.1 0 120 26.9 120 60C120 93.1 93.1 120 60 120Z" fill="white"></path><path d="M22 55L60 97L71.4 55H22Z" fill="#BFC4CF"></path><path d="M60 97L98 55H48.6L60 97Z" fill="#0A0B0D"></path><path d="M40 35L48 55H98L80 35H40Z" fill="#BFC4CF"></path><path d="M80 35H60V55H72L80 35Z" fill="#0052FF"></path><path d="M60 35L48 55H72L60 35Z" fill="#0A0B0D"></path><path d="M71.4 55H48.5L59.9 97L71.4 55Z" fill="#0A0B0D"></path><path d="M72 55H48L60 97L72 55Z" fill="#0052FF"></path></svg>