<svg xmlns="http://www.w3.org/2000/svg" viewBox="0 0 120 120" fill="none"><path d="M60 120C26.9 120 0 93.1 0 60C0 26.9 26.9 0 60 0C93.1 0 120 26.9 120 60C120 93.1 93.1 120 60 120Z" fill="white"></path><path d="M94 42H26C24.9 42 24 42.9 24 44V76C24 77.1 24.9 78 26 78H94C95.1 78 96 77.1 96 76V44C96 42.9 95.1 42 94 42Z" fill="#0A0B0D"></path><path d="M86 42H34C34 44.2 32.2 46 30 46V74C32.2 74 34 75.8 34 78H86C86 75.8 87.8 74 90 74V46C87.8 46 86 44.2 86 42Z" fill="#0052FF"></path><path d="M61.5 50H58.5V70H61.5V50Z" fill="white"></path><path d="M70 58.5H50V61.5H70V58.5Z" fill="white"></path><path d="M34 94C34 95.1 34.9 96 36 96H84C85.1 96 86 95.1 86 94V82H34V94Z" fill="#BFC4CF"></path><path d="M84 24H36C34.9 24 34 24.9 34 26V38H86V26C86 24.9 85.1 24 84 24Z" fill="#BFC4CF"></path></svg>