<svg xmlns="http://www.w3.org/2000/svg" viewBox="0 0 120 120" fill="none"><path d="M60 120C26.9 120 0 93.1 0 60C0 26.9 26.9 0 60 0C93.1 0 120 26.9 120 60C120 93.1 93.1 120 60 120Z" fill="white"></path><path d="M69.1 76C55.3 76 44.1 64.8 44.1 51C44.1 50.4 44.1 49.8 44.2 49.2C36 52.1 30.1 59.8 30.1 69C30.1 80.6 39.5 90 51.1 90C60.3 90 68 84.1 70.9 75.9C70.3 76 69.7 76 69.1 76Z" fill="#BFC4CF"></path><path d="M69.1 72C80.698 72 90.1 62.598 90.1 51C90.1 39.402 80.698 30 69.1 30C57.502 30 48.1 39.402 48.1 51C48.1 62.598 57.502 72 69.1 72Z" fill="#0052FF"></path><path d="M51.1 48C50.2 48 49.2 48.1 48.3 48.2C48.2 49.1 48.1 50 48.1 51C48.1 62.6 57.5 72 69.1 72C70 72 71 71.9 71.9 71.8C72 70.9 72.1 70 72.1 69C72.1 57.4 62.7 48 51.1 48Z" fill="#0A0B0D"></path></svg>