<svg xmlns="http://www.w3.org/2000/svg" viewBox="0 0 120 120" fill="none"><path d="M60 120C93.1 120 120 93.1 120 60C120 26.9 93.1 0 60 0C26.9 0 0 26.9 0 60C0 93.1 26.9 120 60 120Z" fill="white"></path><path d="M58.8 24.8L26.2 48.3C24.6 49.4 25.4 51.9 27.4 51.9H92.6C94.5 51.9 95.3 49.4 93.8 48.3L61.2 24.8C60.5 24.3 59.5 24.3 58.8 24.8L26.2 48.3C24.6 49.4 25.4 51.9 27.4 51.9H92.6C94.5 51.9 95.3 49.4 93.8 48.3L61.2 24.8C60.5 24.3 59.5 24.3 58.8 24.8Z" fill="#0052FF"></path><path d="M48 52H40V84H48V52Z" fill="#BFC4CF"></path><path d="M64 52H56V84H64V52Z" fill="#BFC4CF"></path><path d="M80 52H72V84H80V52Z" fill="#BFC4CF"></path><path d="M48 44H40V52H48V44Z" fill="#0A0B0D"></path><path d="M64 44H56V52H64V44Z" fill="#0A0B0D"></path><path d="M80 44H72V52H80V44Z" fill="#0A0B0D"></path><path d="M90 96H30C28.9 96 28 95.1 28 94V90C28 88.9 28.9 88 30 88H90C91.1 88 92 88.9 92 90V94C92 95.1 91.1 96 90 96Z" fill="#0A0B0D"></path></svg>