<svg xmlns="http://www.w3.org/2000/svg" viewBox="0 0 120 120" fill="none"><path d="M60 120C93.1 120 120 93.1 120 60C120 26.9 93.1 0 60 0C26.9 0 0 26.9 0 60C0 93.1 26.9 120 60 120Z" fill="white"></path><path d="M82.1 76.5C90.9366 76.5 98.1 69.3366 98.1 60.5C98.1 51.6634 90.9366 44.5 82.1 44.5C73.2634 44.5 66.1 51.6634 66.1 60.5C66.1 69.3366 73.2634 76.5 82.1 76.5Z" fill="#BFC4CF"></path><path d="M82.1 44.5C73.3 44.5 66.1 51.7 66.1 60.5C66.1 69.3 73.3 76.5 82.1 76.5V44.5Z" fill="#0A0B0D"></path><path d="M62.1 60.5C62.1 49.5 71 40.6 82 40.5V30C82 28.9 81.1 28 80 28H40C38.9 28 38 28.9 38 30V90C38 91.1 38.9 92 40 92H80C81.1 92 82 91.1 82 90V80.5C71 80.4 62.1 71.5 62.1 60.5Z" fill="#0052FF"></path></svg>