<svg xmlns="http://www.w3.org/2000/svg" viewBox="0 0 120 120" fill="none"><path d="M60 120C26.9 120 0 93.1 0 60C0 26.9 26.9 0 60 0C93.1 0 120 26.9 120 60C120 93.1 93.1 120 60 120Z" fill="white"></path><path d="M52 52H28V68H52V52Z" fill="#0052FF"></path><path d="M74 60L52 42V78L74 60L52 42V78L74 60Z" fill="#0A0B0D"></path><path d="M90 28H54C52.9 28 52 28.9 52 30V36.8L54.5 38.9L76.5 56.9L80.3 60L76.5 63.1L54.5 81.1L52 83.2V90C52 91.1 52.9 92 54 92H90C91.1 92 92 91.1 92 90V30C92 28.9 91.1 28 90 28Z" fill="#BFC4CF"></path></svg>