<svg xmlns="http://www.w3.org/2000/svg" viewBox="0 0 36 38"><g fill="none" fill-rule="evenodd"><path d="M17.813 9.5a2.375 2.375 0 002.375-2.375v-4.75a2.375 2.375 0 00-4.75 0v4.75A2.375 2.375 0 0017.811 9.5M29.688 9.5a2.375 2.375 0 002.375-2.375v-4.75a2.375 2.375 0 00-4.75 0v4.75A2.375 2.375 0 0029.688 9.5" fill="#D4EEFF"></path><path fill="#D4EEFF" d="M0 38h35.625V4.75H0z"></path><path fill="#55B4FC" d="M0 11.875h35.625V4.75H0z"></path><path d="M5.938 9.5a2.375 2.375 0 002.375-2.375v-4.75a2.375 2.375 0 00-4.75 0v4.75A2.375 2.375 0 005.937 9.5" fill="#D4EEFF"></path><path d="M27.313 4.75v2.375a2.375 2.375 0 004.75 0V4.75h-4.75zM5.938 9.5a2.375 2.375 0 002.375-2.375V4.75h-4.75v2.375A2.375 2.375 0 005.937 9.5" fill="#1752F0"></path><path d="M17.813 9.5a2.375 2.375 0 002.375-2.375v-4.75a2.375 2.375 0 00-4.75 0v4.75A2.375 2.375 0 0017.811 9.5" fill="#D4EEFF"></path><path d="M17.813 9.5a2.375 2.375 0 002.375-2.375V4.75h-4.75v2.375A2.375 2.375 0 0017.811 9.5" fill="#1752F0"></path><path fill="#FFF" d="M4.75 34.438h26.125V11.875H4.75z"></path><path fill="#1752F0" d="M12.69 26.329l3.359 3.359L26.125 19.61l-3.358-3.359z"></path><path fill="#1752F0" d="M16.049 29.688l3.359-3.36-6.244-6.243-3.359 3.36z"></path></g></svg>