<svg xmlns="http://www.w3.org/2000/svg" viewBox="0 0 64 64" fill="none"><path d="M56 0H8v50h48V0z" fill="#8e37d7"></path><path d="M64 10H0v48h64V10z" fill="#996dff"></path><path d="M56 10H8v40h48V10z" fill="#8257e5"></path><path d="M10 16H6v8h4v-8zM10 36H6v8h4v-8z" fill="#8257e5"></path><path d="M64 58h-8v6h8v-6zM8 58H0v6h8v-6z" fill="#996dff"></path><path d="M41.19 20.81c-5.07-5.07-13.32-5.07-18.38 0-5.06 5.07-5.07 13.32 0 18.38 2.53 2.53 5.86 3.8 9.19 3.8 3.33 0 6.66-1.27 9.19-3.8 5.07-5.07 5.07-13.31 0-18.38zM32 19c2.5 0 5 .85 7.04 2.55l-2.85 2.85A6.99 6.99 0 0032 23c-1.53 0-2.98.5-4.19 1.4l-2.85-2.85A11.03 11.03 0 0132 19zm3.54 14.54c-.95.94-2.2 1.46-3.54 1.46-1.34 0-2.59-.52-3.54-1.46A4.952 4.952 0 0127 30c0-1.33.52-2.59 1.46-3.54.94-.95 2.2-1.46 3.54-1.46 1.34 0 2.59.52 3.54 1.46.95.94 1.46 2.21 1.46 3.54s-.52 2.59-1.46 3.54zM23.55 22.96l2.85 2.85A6.99 6.99 0 0025 30c0 1.53.5 2.98 1.4 4.19l-2.85 2.85a11.018 11.018 0 010-14.08zm1.41 15.49l2.85-2.85a6.969 6.969 0 008.38 0l2.85 2.85a11.018 11.018 0 01-14.08 0zm15.49-1.41l-2.85-2.85c.9-1.2 1.4-2.65 1.4-4.19 0-1.53-.5-2.98-1.4-4.19l2.85-2.85a11.018 11.018 0 010 14.08z" fill="#fff"></path></svg>