<svg id="Camada_1" data-name="Camada 1" xmlns="http://www.w3.org/2000/svg" xmlns:xlink="http://www.w3.org/1999/xlink" viewBox="0 0 705.17 559.78"><defs><style>.cls-1{fill:url(#Gradiente_sem_nome);}.cls-2{fill:url(#Gradiente_sem_nome_2);}.cls-3{fill:url(#Gradiente_sem_nome_10);}.cls-4{fill:url(#Gradiente_sem_nome_4);}.cls-5{fill:url(#Gradiente_sem_nome_19);}.cls-6{fill:url(#Gradiente_sem_nome_19-2);}.cls-7{fill:url(#Gradiente_sem_nome_19-3);}</style><linearGradient id="Gradiente_sem_nome" x1="320.98" y1="280.12" x2="506.88" y2="466.02" gradientTransform="matrix(1, 0, 0, -1, 0, 1080)" gradientUnits="userSpaceOnUse"><stop offset="0" stop-color="#9abfa7"/><stop offset="1"/></linearGradient><linearGradient id="Gradiente_sem_nome_2" x1="182" y1="534.35" x2="445.6" y2="534.35" gradientTransform="matrix(1, 0, 0, -1, 0, 1080)" gradientUnits="userSpaceOnUse"><stop offset="0" stop-color="#9abfa7"/><stop offset="1" stop-color="#251f1a"/></linearGradient><linearGradient id="Gradiente_sem_nome_10" x1="410.76" y1="422.85" x2="694.69" y2="586.78" gradientTransform="matrix(1, 0, 0, -1, 0, 1080)" gradientUnits="userSpaceOnUse"><stop offset="0" stop-color="#9abfa7"/><stop offset="0" stop-color="#f6f884"/><stop offset="1" stop-color="#a5a04c"/></linearGradient><linearGradient id="Gradiente_sem_nome_4" x1="575.9" y1="581" x2="856.09" y2="581" gradientTransform="matrix(1, 0, 0, -1, 0, 1080)" gradientUnits="userSpaceOnUse"><stop offset="0" stop-color="#9abfa7" stop-opacity="0"/><stop offset="0" stop-color="#fff"/></linearGradient><linearGradient id="Gradiente_sem_nome_19" x1="680.4" y1="433.62" x2="740.2" y2="433.62" gradientUnits="userSpaceOnUse"><stop offset="0" stop-color="#feffb1"/><stop offset="1" stop-color="#f6f884"/></linearGradient><linearGradient id="Gradiente_sem_nome_19-2" x1="716.2" y1="528.57" x2="796.53" y2="528.57" xlink:href="#Gradiente_sem_nome_19"/><linearGradient id="Gradiente_sem_nome_19-3" x1="541.36" y1="496.88" x2="887.17" y2="496.88" xlink:href="#Gradiente_sem_nome_19"/></defs><title>logo pizy</title><path class="cls-1" d="M411.8,615.4s-123.6,55.4-93,182.3c.7-.7,151.7,16,186.9-92.9,1.2.8,0-92,0-92Z" transform="translate(-182 -238.46)"/><path class="cls-2" d="M426.5,474s-69.6-21.9-122.6,0c0,0-102.9,5-121.9,23.9,0,0,48.3,58.8,107.3,96.6,42.1,27,92.2,39.9,122.6,28.2.4,1,33.7-31.6,33.7-31.6Z" transform="translate(-182 -238.46)"/><path class="cls-3" d="M558.6,257.5S357.5,377.6,415.1,591.4c-1,1-48.2,79.1,36.8,65.1,0,1,122.1,147.8,320.6,106.1.1,0-132.8-47.2-209-226.3C487.2,357,558.6,257.5,558.6,257.5Z" transform="translate(-182 -238.46)"/><g id="Camada_3" data-name="Camada 3"><path class="cls-4" d="M687.5,284.6s-80,12-80.9,16-30.7,80.1-30.7,87.2,22.8,130.7,27.2,136.5S685,644.1,687.5,648.7s118.4,64.7,118.4,64.7,49.2-47,50.1-52-5.3-98.2-5.3-111.2S803.3,431,800.6,417C798,402.8,687.5,284.6,687.5,284.6Z" transform="translate(-182 -238.46)"/><path class="cls-5" d="M733.6,419.3c-14.1-24.6-53.2-5.8-53.2-5.8l22.8,47.1C703.3,460.5,758.9,463.3,733.6,419.3Z" transform="translate(-182 -238.46)"/><path class="cls-6" d="M716.2,499.8l32.7,67.6s74.7-2.2,37-61.8C765.8,473.7,716.2,499.8,716.2,499.8Z" transform="translate(-182 -238.46)"/><path class="cls-7" d="M827.7,421.5C755.6,285,646.5,208.1,583.8,249.8s-55,186,17,322.5S782.1,785.6,844.7,744,899.8,558,827.7,421.5ZM809.1,590.4,826,622l-17.4,7.3s-21.9-36-21.9-37.3c-14.7-9-12.7,8-12.7,8l20.3,35.6-19.4,6.6S762,610.3,761.6,610c-10.8-21.7-23.1-14.7-23.1-14.7l-26.7,5L695.3,567c22.1-5.2,11.3-30.2,11.3-30.2s-32-58.8-53.1-103.6-44.2-26.8-44.2-26.8l-9.4-27.6,36.2-6.8-22.7-44.2,17.5-3.3,24,44.3L670,366l-19-36.9,17-5.9s24.5,43.8,24.3,44.2c93.7,5.4,84.1,92.1,85.2,92.9,31.2,13.7,53,40.6,55.1,70.1a71.49,71.49,0,0,1-5.5,32.3,31.45,31.45,0,0,1-6.2,8.6,27.24,27.24,0,0,1-9.2,5.8C804.9,582.2,809.1,590.4,809.1,590.4Z" transform="translate(-182 -238.46)"/></g></svg>