<svg width="705" height="560" viewBox="0 0 705 560" fill="none" xmlns="http://www.w3.org/2000/svg">
<g clip-path="url(#clip0_551_1379)">
<path d="M229.745 377.088C229.745 377.088 106.174 432.51 136.767 559.46C137.467 558.759 288.43 575.466 323.622 466.523C324.822 467.324 323.622 374.487 323.622 374.487L229.745 377.088Z" fill="url(#paint0_linear_551_1379)"/>
<mask id="mask0_551_1379" style="mask-type:alpha" maskUnits="userSpaceOnUse" x="131" y="374" width="194" height="187">
<path d="M229.745 377.088C229.745 377.088 106.174 432.51 136.767 559.46C137.467 558.759 288.43 575.466 323.622 466.523C324.822 467.324 323.622 374.487 323.622 374.487L229.745 377.088Z" fill="url(#paint1_linear_551_1379)"/>
</mask>
<g mask="url(#mask0_551_1379)">
<g filter="url(#filter0_d_551_1379)">
<path d="M259.441 246.737C259.441 246.737 189.858 224.829 136.871 246.737C136.871 246.737 33.9954 251.739 15 270.647C15 270.647 63.2883 329.47 122.274 367.285C164.364 394.295 214.452 407.2 244.845 395.496C245.244 396.496 278.536 363.883 278.536 363.883L259.441 246.737Z" fill="url(#paint2_linear_551_1379)"/>
</g>
</g>
<path d="M259.441 246.737C259.441 246.737 189.858 224.829 136.871 246.737C136.871 246.737 33.9954 251.739 15 270.647C15 270.647 63.2883 329.47 122.274 367.285C164.364 394.295 214.452 407.2 244.845 395.496C245.244 396.496 278.536 363.883 278.536 363.883L259.441 246.737Z" fill="url(#paint3_linear_551_1379)"/>
<path d="M376.509 19.0475C376.509 19.0475 175.458 139.195 233.044 353.079C232.044 354.079 184.855 432.21 269.835 418.204C269.835 419.205 391.905 566.062 590.358 524.346C590.458 524.346 457.59 477.127 381.408 297.957C305.126 118.587 376.509 19.0475 376.509 19.0475Z" fill="url(#paint4_linear_551_1379)"/>
<path d="M505.378 46.1581C505.378 46.1581 425.397 58.1629 424.498 62.1644C423.598 66.166 393.805 142.296 393.805 149.399C393.805 156.501 416.6 280.15 420.998 285.952C425.397 291.755 502.879 405.799 505.378 410.401C507.878 415.003 623.75 475.127 623.75 475.127C623.75 475.127 672.938 428.108 673.838 423.106C674.737 418.104 668.539 324.868 668.539 311.863C668.539 298.857 621.15 192.616 618.451 178.61C615.851 164.405 505.378 46.1581 505.378 46.1581Z" fill="url(#paint5_linear_551_1379)"/>
<path d="M534.071 261.443L566.763 329.069C566.763 329.069 641.445 326.868 603.754 267.245C583.659 235.332 534.071 261.443 534.071 261.443Z" fill="url(#paint6_linear_551_1379)"/>
<path d="M551.467 180.911C537.37 156.301 498.28 175.109 498.28 175.109L521.074 222.227C521.174 222.127 576.761 224.928 551.467 180.911Z" fill="url(#paint7_linear_551_1379)"/>
<path d="M645.544 183.112C573.462 46.5583 464.388 -30.3719 401.703 11.3445C339.018 53.0608 346.716 197.418 418.699 333.971C490.682 470.525 599.955 547.355 662.54 505.739C725.125 464.122 717.627 319.666 645.544 183.112ZM626.949 352.078L643.845 383.691L626.449 390.994C626.449 390.994 604.554 354.979 604.554 353.679C589.858 344.675 591.857 361.682 591.857 361.682L612.152 397.296L592.757 403.899C592.757 403.899 579.86 371.986 579.46 371.686C568.663 349.977 556.366 356.98 556.366 356.98L529.672 361.982L513.176 328.669C535.271 323.467 524.474 298.457 524.474 298.457C524.474 298.457 492.481 239.634 471.386 194.817C450.291 149.999 427.197 168.006 427.197 168.006L417.799 140.395L453.991 133.592L431.296 89.3751L448.792 86.0738L472.786 130.391L487.882 127.59L468.887 90.6756L485.883 84.7733C485.883 84.7733 510.377 128.591 510.177 128.991C603.854 134.393 594.257 221.127 595.356 221.927C626.549 235.633 648.344 262.543 650.443 292.055C651.135 303.106 649.253 314.168 644.944 324.367C643.38 327.566 641.284 330.475 638.746 332.971C636.101 335.504 632.973 337.477 629.548 338.773C622.75 343.875 626.949 352.078 626.949 352.078Z" fill="url(#paint8_linear_551_1379)"/>
</g>
<defs>
<filter id="filter0_d_551_1379" x="11" y="237" width="271.536" height="170.824" filterUnits="userSpaceOnUse" color-interpolation-filters="sRGB">
<feFlood flood-opacity="0" result="BackgroundImageFix"/>
<feColorMatrix in="SourceAlpha" type="matrix" values="0 0 0 0 0 0 0 0 0 0 0 0 0 0 0 0 0 0 127 0" result="hardAlpha"/>
<feOffset dy="4"/>
<feGaussianBlur stdDeviation="2"/>
<feComposite in2="hardAlpha" operator="out"/>
<feColorMatrix type="matrix" values="0 0 0 0 0 0 0 0 0 0 0 0 0 0 0 0 0 0 0.5 0"/>
<feBlend mode="normal" in2="BackgroundImageFix" result="effect1_dropShadow_551_1379"/>
<feBlend mode="normal" in="SourceGraphic" in2="effect1_dropShadow_551_1379" result="shape"/>
</filter>
<linearGradient id="paint0_linear_551_1379" x1="132" y1="560" x2="301" y2="398" gradientUnits="userSpaceOnUse">
<stop stop-color="#9ABFA7"/>
<stop offset="1" stop-color="#0B1E12"/>
</linearGradient>
<linearGradient id="paint1_linear_551_1379" x1="132" y1="560" x2="301" y2="398" gradientUnits="userSpaceOnUse">
<stop stop-color="#9ABFA7"/>
<stop offset="1" stop-color="#0B1E12"/>
</linearGradient>
<linearGradient id="paint2_linear_551_1379" x1="15" y1="270.105" x2="278.536" y2="318.415" gradientUnits="userSpaceOnUse">
<stop stop-color="#9ABFA7"/>
<stop offset="1" stop-color="#0B1E12"/>
</linearGradient>
<linearGradient id="paint3_linear_551_1379" x1="15" y1="270.105" x2="278.536" y2="318.415" gradientUnits="userSpaceOnUse">
<stop stop-color="#9ABFA7"/>
<stop offset="1" stop-color="#0B1E12"/>
</linearGradient>
<linearGradient id="paint4_linear_551_1379" x1="228.705" y1="418.854" x2="512.656" y2="255.016" gradientUnits="userSpaceOnUse">
<stop stop-color="#F6F884"/>
<stop offset="1" stop-color="#A5A04C"/>
</linearGradient>
<linearGradient id="paint5_linear_551_1379" x1="393.805" y1="260.642" x2="673.928" y2="260.642" gradientUnits="userSpaceOnUse">
<stop stop-color="white"/>
</linearGradient>
<linearGradient id="paint6_linear_551_1379" x1="534.071" y1="290.224" x2="614.382" y2="290.224" gradientUnits="userSpaceOnUse">
<stop stop-color="#FEFFB1"/>
<stop offset="1" stop-color="#F6F884"/>
</linearGradient>
<linearGradient id="paint7_linear_551_1379" x1="498.28" y1="195.237" x2="558.065" y2="195.237" gradientUnits="userSpaceOnUse">
<stop stop-color="#FEFFB1"/>
<stop offset="1" stop-color="#F6F884"/>
</linearGradient>
<linearGradient id="paint8_linear_551_1379" x1="359.273" y1="258.522" x2="705" y2="258.522" gradientUnits="userSpaceOnUse">
<stop stop-color="#FEFFB1"/>
<stop offset="1" stop-color="#F6F884"/>
</linearGradient>
<clipPath id="clip0_551_1379">
<rect width="705" height="560" fill="white"/>
</clipPath>
</defs>
</svg>
